<?xml version="1.0" encoding="UTF-8"?>
<svg id="Layer_1" xmlns="http://www.w3.org/2000/svg" version="1.1" xmlns:xlink="http://www.w3.org/1999/xlink" viewBox="0 0 4200 1600">
  <!-- Generator: Adobe Illustrator 30.1.0, SVG Export Plug-In . SVG Version: 2.1.1 Build 136)  -->
  <defs>
    <style>
      .st0 {
        fill: #fff;
      }

      .st1 {
        fill: url(#linear-gradient1);
      }

      .st2 {
        fill: url(#linear-gradient);
      }

      .st3 {
        fill: #ec609b;
        font-family: Lexend-Medium, Lexend;
        font-size: 1000px;
        font-weight: 500;
      }
    </style>
    <linearGradient id="linear-gradient" x1="11.91" y1="640.87" x2="1581.91" y2="640.87" gradientUnits="userSpaceOnUse">
      <stop offset="0" stop-color="#ec609b"/>
      <stop offset=".52" stop-color="#c564a3"/>
      <stop offset="1" stop-color="#9e6aac"/>
    </linearGradient>
    <linearGradient id="linear-gradient1" x1="11.91" y1="963.57" x2="1581.91" y2="963.57" gradientUnits="userSpaceOnUse">
      <stop offset="0" stop-color="#9e6aac"/>
      <stop offset=".48" stop-color="#c564a3"/>
      <stop offset="1" stop-color="#ec609b"/>
    </linearGradient>
  </defs>
  <g>
    <g>
      <path class="st2" d="M1581.91,800c0,100.04-18.74,195.76-52.88,283.76-22.15-72.17-62.68-137.47-121.58-196.37-94.75-94.75-209.64-143.49-343.88-147.14-133.33-2.8-250.11,40.47-348.44,129.62l-273.05,273.05c-63.47,63.47-139.78,103.02-228.99,118.66-.85.12-1.76.3-2.68.43-14.85,2.5-29.76,4.08-44.67,4.75C69.05,1136.27,11.91,974.83,11.91,800c0-105.21,20.69-205.56,58.24-297.27C187.35,216.61,468.61,15,796.91,15c262.64,0,495.22,129.01,637.74,327.14,92.68,128.89,147.26,286.98,147.26,457.86Z"/>
      <path class="st1" d="M1581.91,800c0,100.04-18.74,195.76-52.88,283.76-113.73,293.31-398.65,501.24-732.12,501.24-258.68,0-488.22-125.17-631.16-318.26C69.05,1136.27,11.91,974.83,11.91,800c0-105.21,20.69-205.56,58.24-297.27,20.38,81.06,62.86,153.59,127.79,218.52,94.75,94.75,209.64,143.49,343.88,147.14,133.33,2.8,250.1-40.47,348.44-129.62l273.05-273.05c63.47-63.41,139.78-103.02,228.99-118.66.85-.12,1.76-.3,2.68-.43,13.2-2.25,26.47-3.71,39.68-4.5,92.68,128.89,147.26,286.98,147.26,457.86Z"/>
    </g>
    <path class="st0" d="M531,509.72v580.55c0,73.61,80.07,119.28,143.43,81.81l490.83-290.28c62.22-36.8,62.22-126.82,0-163.62l-490.83-290.28c-63.36-37.47-143.43,8.2-143.43,81.81Z"/>
  </g>
  <text class="st3" transform="translate(1781.91 1094.6)"><tspan x="0" y="0">Lumi</tspan></text>
</svg>