<?xml version="1.0" encoding="UTF-8"?>
<svg id="Layer_1" xmlns="http://www.w3.org/2000/svg" version="1.1" xmlns:xlink="http://www.w3.org/1999/xlink" viewBox="0 0 1000 1000">
  <!-- Generator: Adobe Illustrator 30.1.0, SVG Export Plug-In . SVG Version: 2.1.1 Build 136)  -->
  <defs>
    <style>
      .st0 {
        fill: #fff;
      }

      .st1 {
        fill: url(#linear-gradient1);
      }

      .st2 {
        fill: url(#linear-gradient);
      }
    </style>
    <linearGradient id="linear-gradient" x1="300" y1="540.54" x2="700" y2="540.54" gradientTransform="translate(0 1000) scale(1 -1)" gradientUnits="userSpaceOnUse">
      <stop offset="0" stop-color="#ec609b"/>
      <stop offset=".52" stop-color="#c564a3"/>
      <stop offset="1" stop-color="#9e6aac"/>
    </linearGradient>
    <linearGradient id="linear-gradient1" x1="300" y1="458.33" x2="700" y2="458.33" gradientTransform="translate(0 1000) scale(1 -1)" gradientUnits="userSpaceOnUse">
      <stop offset="0" stop-color="#9e6aac"/>
      <stop offset=".48" stop-color="#c564a3"/>
      <stop offset="1" stop-color="#ec609b"/>
    </linearGradient>
  </defs>
  <g>
    <path class="st2" d="M700,500c0,25.49-4.77,49.88-13.47,72.29-5.64-18.39-15.97-35.02-30.98-50.03-24.14-24.14-53.41-36.56-87.61-37.49-33.97-.71-63.72,10.31-88.77,33.02l-69.57,69.57c-16.17,16.17-35.61,26.25-58.34,30.23-.22.03-.45.08-.68.11-3.78.64-7.58,1.04-11.38,1.21-24.64-33.24-39.2-74.37-39.2-118.92,0-26.81,5.27-52.37,14.84-75.74,29.86-72.9,101.52-124.26,185.16-124.26,66.92,0,126.17,32.87,162.48,83.35,23.61,32.84,37.52,73.11,37.52,116.65h0Z"/>
    <path class="st1" d="M700,500c0,25.49-4.77,49.88-13.47,72.29-28.98,74.73-101.57,127.71-186.53,127.71-65.91,0-124.39-31.89-160.8-81.08-24.64-33.24-39.2-74.37-39.2-118.92,0-26.81,5.27-52.37,14.84-75.74,5.19,20.65,16.02,39.13,32.56,55.68,24.14,24.14,53.41,36.56,87.61,37.49,33.97.71,63.72-10.31,88.77-33.02l69.57-69.57c16.17-16.15,35.61-26.25,58.34-30.23.22-.03.45-.08.68-.11,3.36-.57,6.74-.94,10.11-1.15,23.61,32.84,37.52,73.11,37.52,116.65Z"/>
  </g>
  <path class="st0" d="M432.25,426.04v147.91c0,18.76,20.4,30.39,36.54,20.84l125.05-73.96c15.85-9.38,15.85-32.31,0-41.69l-125.05-73.96c-16.14-9.55-36.54,2.09-36.54,20.84h0Z"/>
</svg>