<?xml version="1.0" encoding="UTF-8"?>
<svg id="Layer_1" xmlns="http://www.w3.org/2000/svg" version="1.1" xmlns:xlink="http://www.w3.org/1999/xlink" viewBox="0 0 1640 1640">
  <!-- Generator: Adobe Illustrator 30.1.0, SVG Export Plug-In . SVG Version: 2.1.1 Build 136)  -->
  <defs>
    <style>
      .st0 {
        fill: #fff;
      }

      .st1 {
        fill: url(#linear-gradient1);
      }

      .st2 {
        fill: url(#linear-gradient);
      }
    </style>
    <linearGradient id="linear-gradient" x1="20" y1="657.83" x2="1620" y2="657.83" gradientUnits="userSpaceOnUse">
      <stop offset="0" stop-color="#ec609b"/>
      <stop offset=".52" stop-color="#c564a3"/>
      <stop offset="1" stop-color="#9e6aac"/>
    </linearGradient>
    <linearGradient id="linear-gradient1" x1="20" y1="986.7" x2="1620" y2="986.7" gradientUnits="userSpaceOnUse">
      <stop offset="0" stop-color="#9e6aac"/>
      <stop offset=".48" stop-color="#c564a3"/>
      <stop offset="1" stop-color="#ec609b"/>
    </linearGradient>
  </defs>
  <g>
    <path class="st2" d="M1620,820c0,101.95-19.1,199.5-53.89,289.18-22.57-73.55-63.88-140.09-123.91-200.12-96.56-96.56-213.64-146.23-350.45-149.95-135.88-2.85-254.88,41.24-355.1,132.09l-278.26,278.26c-64.68,64.68-142.45,104.99-233.36,120.93-.87.12-1.8.31-2.73.43-15.13,2.54-30.33,4.16-45.52,4.84C78.23,1162.7,20,998.17,20,820c0-107.23,21.09-209.49,59.35-302.95C198.79,225.46,485.43,20,820,20c267.66,0,504.68,131.47,649.92,333.4,94.45,131.35,150.08,292.46,150.08,466.6Z"/>
    <path class="st1" d="M1620,820c0,101.95-19.1,199.5-53.89,289.18-115.91,298.91-406.26,510.82-746.11,510.82-263.63,0-497.55-127.57-643.22-324.34C78.23,1162.7,20,998.17,20,820c0-107.23,21.09-209.49,59.35-302.95,20.77,82.61,64.06,156.53,130.23,222.7,96.56,96.56,213.64,146.23,350.45,149.95,135.88,2.85,254.88-41.24,355.1-132.09l278.26-278.26c64.68-64.62,142.45-104.99,233.37-120.93.87-.12,1.8-.31,2.73-.43,13.46-2.29,26.98-3.78,40.43-4.59,94.45,131.35,150.08,292.46,150.08,466.6Z"/>
  </g>
  <path class="st0" d="M549.01,524.18v591.64c0,75.02,81.6,121.56,146.17,83.37l500.21-295.82c63.41-37.5,63.41-129.25,0-166.75l-500.21-295.82c-64.57-38.19-146.17,8.36-146.17,83.37Z"/>
</svg>